<svg width="345" height="199" viewBox="0 0 345 199" fill="none" xmlns="http://www.w3.org/2000/svg">
<g clip-path="url(#clip0_1_405)">
<path d="M0 197.736L54.7693 11.3483V0H83.582L131.873 170.687L176.415 12.4142V0H204.97L233.214 98.868L257.738 11.0064V0H286.123L338.975 186.431L345 197.736V199H313.914V190.525L262.426 9.72792L235.005 105.372L258.674 186.856L263.706 197.52L263.62 199H232.591V191.122L222.019 151.533L211.109 191.889L211.365 199H203.778H202.584L206.221 191.435L218.836 148.206V139.219L181.656 9.17343L133.707 178.154L142.315 199H111.201V189.588L59.4595 8.78845L8.69432 190.441V199H0V197.736Z" fill="#383838"/>
</g>
<defs>
<clipPath id="clip0_1_405">
<rect width="345" height="199" fill="white"/>
</clipPath>
</defs>
</svg>
