<svg width="16" height="17" viewBox="0 0 16 17" fill="none" xmlns="http://www.w3.org/2000/svg">
<mask id="path-1-inside-1_1_339" fill="white">
<path d="M11.7482 16.1853H4.25163C4.09196 16.1597 3.92993 16.1443 3.77291 16.1071C2.10361 15.7126 1.03107 14.6586 0.568885 12.9412C0.50602 12.7072 0.48477 12.4611 0.444336 12.2203C0.444336 9.61795 0.444336 7.01559 0.444336 4.41323C0.45319 4.35872 0.464701 4.30453 0.470603 4.24971C0.531402 3.67819 0.684579 3.13376 0.965846 2.63921C1.78515 1.199 3.00673 0.460261 4.61347 0.45133C6.87099 0.439013 9.1285 0.44548 11.386 0.451638C11.6696 0.452562 11.9604 0.468267 12.2357 0.532625C13.9021 0.920624 14.9696 1.97931 15.4306 3.69174C15.4938 3.92577 15.5147 4.17242 15.5552 4.41323V12.2203C15.5307 12.386 15.5159 12.5541 15.4805 12.7173C15.1021 14.4556 14.0904 15.5734 12.4414 16.0553C12.2162 16.1212 11.9792 16.1431 11.7479 16.1853H11.7482ZM8.0055 1.37113C6.87423 1.37113 5.74326 1.3659 4.61229 1.37514C4.34873 1.37729 4.07868 1.39916 3.82368 1.46351C2.30696 1.84689 1.33211 3.14854 1.33093 4.77721C1.32887 7.13815 1.32828 9.4994 1.33359 11.8603C1.33418 12.1147 1.35159 12.3752 1.4059 12.6222C1.75475 14.2111 3.02119 15.2599 4.58661 15.2624C6.86361 15.2658 9.1406 15.2655 11.4176 15.2599C11.657 15.2593 11.9019 15.2399 12.1345 15.1845C13.6542 14.8221 14.6659 13.5063 14.6691 11.8874C14.6739 9.50587 14.6706 7.12429 14.67 4.74272C14.67 4.25557 14.5895 3.78227 14.3835 3.34346C13.7808 2.05814 12.785 1.39515 11.4138 1.37452C10.2781 1.35758 9.14178 1.37113 8.00579 1.37113H8.0055Z"/>
</mask>
<path d="M4.25163 16.1853L4.09357 17.1727L4.1721 17.1853H4.25163V16.1853ZM3.77291 16.1071L4.00381 15.1341L4.00288 15.1339L3.77291 16.1071ZM0.568885 12.9412L-0.39688 13.2006L-0.396756 13.2011L0.568885 12.9412ZM0.444336 12.2203H-0.555664V12.3037L-0.541858 12.3859L0.444336 12.2203ZM0.444336 4.41323L-0.542725 4.25288L-0.555664 4.33253V4.41323H0.444336ZM0.470603 4.24971L1.46486 4.35679L1.46499 4.3555L0.470603 4.24971ZM0.965846 2.63921L0.0966497 2.14475L0.0965984 2.14484L0.965846 2.63921ZM4.61347 0.45133L4.60801 -0.548655L4.60791 -0.548654L4.61347 0.45133ZM11.386 0.451638L11.3893 -0.548356L11.3887 -0.548358L11.386 0.451638ZM12.2357 0.532625L12.0081 1.50638L12.0089 1.50657L12.2357 0.532625ZM15.4306 3.69174L14.465 3.95169L14.4651 3.95229L15.4306 3.69174ZM15.5552 4.41323H16.5552V4.32986L16.5413 4.24764L15.5552 4.41323ZM15.5552 12.2203L16.5444 12.3666L16.5552 12.2939V12.2203H15.5552ZM15.4805 12.7173L16.4576 12.93L16.4577 12.9294L15.4805 12.7173ZM12.4414 16.0553L12.1609 15.0955L12.1606 15.0956L12.4414 16.0553ZM11.7479 16.1853L11.5685 15.2015L11.7479 17.1853V16.1853ZM4.61229 1.37514L4.60412 0.37517L4.60411 0.37517L4.61229 1.37514ZM3.82368 1.46351L3.57896 0.493919L3.57861 0.494007L3.82368 1.46351ZM1.33093 4.77721L2.33093 4.77808L2.33093 4.77793L1.33093 4.77721ZM1.33359 11.8603L0.333592 11.8626L0.333592 11.8627L1.33359 11.8603ZM1.4059 12.6222L2.38264 12.4077L2.38257 12.4074L1.4059 12.6222ZM4.58661 15.2624L4.58504 16.2624L4.58512 16.2624L4.58661 15.2624ZM11.4176 15.2599L11.42 16.2599L11.4202 16.2599L11.4176 15.2599ZM12.1345 15.1845L12.3663 16.1573L12.3665 16.1572L12.1345 15.1845ZM14.6691 11.8874L15.6691 11.8894L15.6691 11.8894L14.6691 11.8874ZM14.67 4.74272L13.67 4.74272L13.67 4.74297L14.67 4.74272ZM14.3835 3.34346L13.478 3.768L13.4782 3.76843L14.3835 3.34346ZM11.4138 1.37452L11.4288 0.374634L11.4287 0.374632L11.4138 1.37452ZM11.7482 15.1853H4.25163V17.1853H11.7482V15.1853ZM4.40969 15.1979C4.16186 15.1582 4.11588 15.1607 4.00381 15.1341L3.54202 17.0801C3.74397 17.128 4.02206 17.1613 4.09357 17.1727L4.40969 15.1979ZM4.00288 15.1339C3.32026 14.9726 2.80659 14.6893 2.42061 14.3084C2.03334 13.9263 1.72784 13.3996 1.53453 12.6813L-0.396756 13.2011C-0.127883 14.2001 0.333976 15.0592 1.01585 15.732C1.69901 16.4061 2.55626 16.8471 3.54294 17.0803L4.00288 15.1339ZM1.53465 12.6818C1.48741 12.5059 1.48959 12.4065 1.43053 12.0547L-0.541858 12.3859C-0.52005 12.5158 -0.475365 12.9084 -0.39688 13.2006L1.53465 12.6818ZM1.44434 12.2203C1.44434 12.2152 1.44434 12.2102 1.44434 12.2051C1.44434 12.2 1.44434 12.1949 1.44434 12.1898C1.44434 12.1847 1.44434 12.1797 1.44434 12.1746C1.44434 12.1695 1.44434 12.1644 1.44434 12.1593C1.44434 12.1542 1.44434 12.1492 1.44434 12.1441C1.44434 12.139 1.44434 12.1339 1.44434 12.1288C1.44434 12.1237 1.44434 12.1187 1.44434 12.1136C1.44434 12.1085 1.44434 12.1034 1.44434 12.0983C1.44434 12.0932 1.44434 12.0882 1.44434 12.0831C1.44434 12.078 1.44434 12.0729 1.44434 12.0678C1.44434 12.0628 1.44434 12.0577 1.44434 12.0526C1.44434 12.0475 1.44434 12.0424 1.44434 12.0373C1.44434 12.0323 1.44434 12.0272 1.44434 12.0221C1.44434 12.017 1.44434 12.0119 1.44434 12.0068C1.44434 12.0018 1.44434 11.9967 1.44434 11.9916C1.44434 11.9865 1.44434 11.9814 1.44434 11.9763C1.44434 11.9713 1.44434 11.9662 1.44434 11.9611C1.44434 11.956 1.44434 11.9509 1.44434 11.9458C1.44434 11.9408 1.44434 11.9357 1.44434 11.9306C1.44434 11.9255 1.44434 11.9204 1.44434 11.9154C1.44434 11.9103 1.44434 11.9052 1.44434 11.9001C1.44434 11.895 1.44434 11.8899 1.44434 11.8849C1.44434 11.8798 1.44434 11.8747 1.44434 11.8696C1.44434 11.8645 1.44434 11.8594 1.44434 11.8544C1.44434 11.8493 1.44434 11.8442 1.44434 11.8391C1.44434 11.834 1.44434 11.8289 1.44434 11.8239C1.44434 11.8188 1.44434 11.8137 1.44434 11.8086C1.44434 11.8035 1.44434 11.7985 1.44434 11.7934C1.44434 11.7883 1.44434 11.7832 1.44434 11.7781C1.44434 11.773 1.44434 11.768 1.44434 11.7629C1.44434 11.7578 1.44434 11.7527 1.44434 11.7476C1.44434 11.7425 1.44434 11.7375 1.44434 11.7324C1.44434 11.7273 1.44434 11.7222 1.44434 11.7171C1.44434 11.712 1.44434 11.707 1.44434 11.7019C1.44434 11.6968 1.44434 11.6917 1.44434 11.6866C1.44434 11.6815 1.44434 11.6765 1.44434 11.6714C1.44434 11.6663 1.44434 11.6612 1.44434 11.6561C1.44434 11.6511 1.44434 11.646 1.44434 11.6409C1.44434 11.6358 1.44434 11.6307 1.44434 11.6256C1.44434 11.6206 1.44434 11.6155 1.44434 11.6104C1.44434 11.6053 1.44434 11.6002 1.44434 11.5951C1.44434 11.5901 1.44434 11.585 1.44434 11.5799C1.44434 11.5748 1.44434 11.5697 1.44434 11.5646C1.44434 11.5596 1.44434 11.5545 1.44434 11.5494C1.44434 11.5443 1.44434 11.5392 1.44434 11.5341C1.44434 11.5291 1.44434 11.524 1.44434 11.5189C1.44434 11.5138 1.44434 11.5087 1.44434 11.5037C1.44434 11.4986 1.44434 11.4935 1.44434 11.4884C1.44434 11.4833 1.44434 11.4782 1.44434 11.4732C1.44434 11.4681 1.44434 11.463 1.44434 11.4579C1.44434 11.4528 1.44434 11.4477 1.44434 11.4427C1.44434 11.4376 1.44434 11.4325 1.44434 11.4274C1.44434 11.4223 1.44434 11.4172 1.44434 11.4122C1.44434 11.4071 1.44434 11.402 1.44434 11.3969C1.44434 11.3918 1.44434 11.3867 1.44434 11.3817C1.44434 11.3766 1.44434 11.3715 1.44434 11.3664C1.44434 11.3613 1.44434 11.3563 1.44434 11.3512C1.44434 11.3461 1.44434 11.341 1.44434 11.3359C1.44434 11.3308 1.44434 11.3258 1.44434 11.3207C1.44434 11.3156 1.44434 11.3105 1.44434 11.3054C1.44434 11.3003 1.44434 11.2953 1.44434 11.2902C1.44434 11.2851 1.44434 11.28 1.44434 11.2749C1.44434 11.2698 1.44434 11.2648 1.44434 11.2597C1.44434 11.2546 1.44434 11.2495 1.44434 11.2444C1.44434 11.2393 1.44434 11.2343 1.44434 11.2292C1.44434 11.2241 1.44434 11.219 1.44434 11.2139C1.44434 11.2089 1.44434 11.2038 1.44434 11.1987C1.44434 11.1936 1.44434 11.1885 1.44434 11.1834C1.44434 11.1784 1.44434 11.1733 1.44434 11.1682C1.44434 11.1631 1.44434 11.158 1.44434 11.1529C1.44434 11.1479 1.44434 11.1428 1.44434 11.1377C1.44434 11.1326 1.44434 11.1275 1.44434 11.1224C1.44434 11.1174 1.44434 11.1123 1.44434 11.1072C1.44434 11.1021 1.44434 11.097 1.44434 11.0919C1.44434 11.0869 1.44434 11.0818 1.44434 11.0767C1.44434 11.0716 1.44434 11.0665 1.44434 11.0615C1.44434 11.0564 1.44434 11.0513 1.44434 11.0462C1.44434 11.0411 1.44434 11.036 1.44434 11.031C1.44434 11.0259 1.44434 11.0208 1.44434 11.0157C1.44434 11.0106 1.44434 11.0055 1.44434 11.0005C1.44434 10.9954 1.44434 10.9903 1.44434 10.9852C1.44434 10.9801 1.44434 10.975 1.44434 10.97C1.44434 10.9649 1.44434 10.9598 1.44434 10.9547C1.44434 10.9496 1.44434 10.9446 1.44434 10.9395C1.44434 10.9344 1.44434 10.9293 1.44434 10.9242C1.44434 10.9191 1.44434 10.9141 1.44434 10.909C1.44434 10.9039 1.44434 10.8988 1.44434 10.8937C1.44434 10.8886 1.44434 10.8836 1.44434 10.8785C1.44434 10.8734 1.44434 10.8683 1.44434 10.8632C1.44434 10.8581 1.44434 10.8531 1.44434 10.848C1.44434 10.8429 1.44434 10.8378 1.44434 10.8327C1.44434 10.8276 1.44434 10.8226 1.44434 10.8175C1.44434 10.8124 1.44434 10.8073 1.44434 10.8022C1.44434 10.7972 1.44434 10.7921 1.44434 10.787C1.44434 10.7819 1.44434 10.7768 1.44434 10.7717C1.44434 10.7667 1.44434 10.7616 1.44434 10.7565C1.44434 10.7514 1.44434 10.7463 1.44434 10.7412C1.44434 10.7362 1.44434 10.7311 1.44434 10.726C1.44434 10.7209 1.44434 10.7158 1.44434 10.7107C1.44434 10.7057 1.44434 10.7006 1.44434 10.6955C1.44434 10.6904 1.44434 10.6853 1.44434 10.6802C1.44434 10.6752 1.44434 10.6701 1.44434 10.665C1.44434 10.6599 1.44434 10.6548 1.44434 10.6498C1.44434 10.6447 1.44434 10.6396 1.44434 10.6345C1.44434 10.6294 1.44434 10.6243 1.44434 10.6193C1.44434 10.6142 1.44434 10.6091 1.44434 10.604C1.44434 10.5989 1.44434 10.5938 1.44434 10.5888C1.44434 10.5837 1.44434 10.5786 1.44434 10.5735C1.44434 10.5684 1.44434 10.5633 1.44434 10.5583C1.44434 10.5532 1.44434 10.5481 1.44434 10.543C1.44434 10.5379 1.44434 10.5328 1.44434 10.5278C1.44434 10.5227 1.44434 10.5176 1.44434 10.5125C1.44434 10.5074 1.44434 10.5024 1.44434 10.4973C1.44434 10.4922 1.44434 10.4871 1.44434 10.482C1.44434 10.4769 1.44434 10.4719 1.44434 10.4668C1.44434 10.4617 1.44434 10.4566 1.44434 10.4515C1.44434 10.4464 1.44434 10.4414 1.44434 10.4363C1.44434 10.4312 1.44434 10.4261 1.44434 10.421C1.44434 10.4159 1.44434 10.4109 1.44434 10.4058C1.44434 10.4007 1.44434 10.3956 1.44434 10.3905C1.44434 10.3854 1.44434 10.3804 1.44434 10.3753C1.44434 10.3702 1.44434 10.3651 1.44434 10.36C1.44434 10.355 1.44434 10.3499 1.44434 10.3448C1.44434 10.3397 1.44434 10.3346 1.44434 10.3295C1.44434 10.3245 1.44434 10.3194 1.44434 10.3143C1.44434 10.3092 1.44434 10.3041 1.44434 10.299C1.44434 10.294 1.44434 10.2889 1.44434 10.2838C1.44434 10.2787 1.44434 10.2736 1.44434 10.2685C1.44434 10.2635 1.44434 10.2584 1.44434 10.2533C1.44434 10.2482 1.44434 10.2431 1.44434 10.238C1.44434 10.233 1.44434 10.2279 1.44434 10.2228C1.44434 10.2177 1.44434 10.2126 1.44434 10.2076C1.44434 10.2025 1.44434 10.1974 1.44434 10.1923C1.44434 10.1872 1.44434 10.1821 1.44434 10.1771C1.44434 10.172 1.44434 10.1669 1.44434 10.1618C1.44434 10.1567 1.44434 10.1516 1.44434 10.1466C1.44434 10.1415 1.44434 10.1364 1.44434 10.1313C1.44434 10.1262 1.44434 10.1211 1.44434 10.1161C1.44434 10.111 1.44434 10.1059 1.44434 10.1008C1.44434 10.0957 1.44434 10.0906 1.44434 10.0856C1.44434 10.0805 1.44434 10.0754 1.44434 10.0703C1.44434 10.0652 1.44434 10.0602 1.44434 10.0551C1.44434 10.05 1.44434 10.0449 1.44434 10.0398C1.44434 10.0347 1.44434 10.0297 1.44434 10.0246C1.44434 10.0195 1.44434 10.0144 1.44434 10.0093C1.44434 10.0042 1.44434 9.99916 1.44434 9.99408C1.44434 9.98899 1.44434 9.98391 1.44434 9.97883C1.44434 9.97375 1.44434 9.96866 1.44434 9.96358C1.44434 9.9585 1.44434 9.95342 1.44434 9.94833C1.44434 9.94325 1.44434 9.93817 1.44434 9.93308C1.44434 9.928 1.44434 9.92292 1.44434 9.91784C1.44434 9.91275 1.44434 9.90767 1.44434 9.90259C1.44434 9.89751 1.44434 9.89242 1.44434 9.88734C1.44434 9.88226 1.44434 9.87717 1.44434 9.87209C1.44434 9.86701 1.44434 9.86193 1.44434 9.85684C1.44434 9.85176 1.44434 9.84668 1.44434 9.8416C1.44434 9.83651 1.44434 9.83143 1.44434 9.82635C1.44434 9.82126 1.44434 9.81618 1.44434 9.8111C1.44434 9.80602 1.44434 9.80093 1.44434 9.79585C1.44434 9.79077 1.44434 9.78569 1.44434 9.7806C1.44434 9.77552 1.44434 9.77044 1.44434 9.76535C1.44434 9.76027 1.44434 9.75519 1.44434 9.75011C1.44434 9.74502 1.44434 9.73994 1.44434 9.73486C1.44434 9.72978 1.44434 9.72469 1.44434 9.71961C1.44434 9.71453 1.44434 9.70944 1.44434 9.70436C1.44434 9.69928 1.44434 9.6942 1.44434 9.68911C1.44434 9.68403 1.44434 9.67895 1.44434 9.67387C1.44434 9.66878 1.44434 9.6637 1.44434 9.65862C1.44434 9.65353 1.44434 9.64845 1.44434 9.64337C1.44434 9.63829 1.44434 9.6332 1.44434 9.62812C1.44434 9.62304 1.44434 9.61795 1.44434 9.61287C1.44434 9.60779 1.44434 9.60271 1.44434 9.59762C1.44434 9.59254 1.44434 9.58746 1.44434 9.58238C1.44434 9.57729 1.44434 9.57221 1.44434 9.56713C1.44434 9.56204 1.44434 9.55696 1.44434 9.55188C1.44434 9.5468 1.44434 9.54171 1.44434 9.53663C1.44434 9.53155 1.44434 9.52647 1.44434 9.52138C1.44434 9.5163 1.44434 9.51122 1.44434 9.50613C1.44434 9.50105 1.44434 9.49597 1.44434 9.49089C1.44434 9.4858 1.44434 9.48072 1.44434 9.47564C1.44434 9.47056 1.44434 9.46547 1.44434 9.46039C1.44434 9.45531 1.44434 9.45022 1.44434 9.44514C1.44434 9.44006 1.44434 9.43498 1.44434 9.42989C1.44434 9.42481 1.44434 9.41973 1.44434 9.41465C1.44434 9.40956 1.44434 9.40448 1.44434 9.3994C1.44434 9.39431 1.44434 9.38923 1.44434 9.38415C1.44434 9.37907 1.44434 9.37398 1.44434 9.3689C1.44434 9.36382 1.44434 9.35874 1.44434 9.35365C1.44434 9.34857 1.44434 9.34349 1.44434 9.3384C1.44434 9.33332 1.44434 9.32824 1.44434 9.32316C1.44434 9.31807 1.44434 9.31299 1.44434 9.30791C1.44434 9.30283 1.44434 9.29774 1.44434 9.29266C1.44434 9.28758 1.44434 9.28249 1.44434 9.27741C1.44434 9.27233 1.44434 9.26725 1.44434 9.26216C1.44434 9.25708 1.44434 9.252 1.44434 9.24691C1.44434 9.24183 1.44434 9.23675 1.44434 9.23167C1.44434 9.22658 1.44434 9.2215 1.44434 9.21642C1.44434 9.21134 1.44434 9.20625 1.44434 9.20117C1.44434 9.19609 1.44434 9.191 1.44434 9.18592C1.44434 9.18084 1.44434 9.17576 1.44434 9.17067C1.44434 9.16559 1.44434 9.16051 1.44434 9.15543C1.44434 9.15034 1.44434 9.14526 1.44434 9.14018C1.44434 9.13509 1.44434 9.13001 1.44434 9.12493C1.44434 9.11985 1.44434 9.11476 1.44434 9.10968C1.44434 9.1046 1.44434 9.09952 1.44434 9.09443C1.44434 9.08935 1.44434 9.08427 1.44434 9.07918C1.44434 9.0741 1.44434 9.06902 1.44434 9.06394C1.44434 9.05885 1.44434 9.05377 1.44434 9.04869C1.44434 9.04361 1.44434 9.03852 1.44434 9.03344C1.44434 9.02836 1.44434 9.02327 1.44434 9.01819C1.44434 9.01311 1.44434 9.00803 1.44434 9.00294C1.44434 8.99786 1.44434 8.99278 1.44434 8.9877C1.44434 8.98261 1.44434 8.97753 1.44434 8.97245C1.44434 8.96736 1.44434 8.96228 1.44434 8.9572C1.44434 8.95212 1.44434 8.94703 1.44434 8.94195C1.44434 8.93687 1.44434 8.93178 1.44434 8.9267C1.44434 8.92162 1.44434 8.91654 1.44434 8.91145C1.44434 8.90637 1.44434 8.90129 1.44434 8.89621C1.44434 8.89112 1.44434 8.88604 1.44434 8.88096C1.44434 8.87587 1.44434 8.87079 1.44434 8.86571C1.44434 8.86063 1.44434 8.85554 1.44434 8.85046C1.44434 8.84538 1.44434 8.8403 1.44434 8.83521C1.44434 8.83013 1.44434 8.82505 1.44434 8.81996C1.44434 8.81488 1.44434 8.8098 1.44434 8.80472C1.44434 8.79963 1.44434 8.79455 1.44434 8.78947C1.44434 8.78439 1.44434 8.7793 1.44434 8.77422C1.44434 8.76914 1.44434 8.76405 1.44434 8.75897C1.44434 8.75389 1.44434 8.74881 1.44434 8.74372C1.44434 8.73864 1.44434 8.73356 1.44434 8.72848C1.44434 8.72339 1.44434 8.71831 1.44434 8.71323C1.44434 8.70814 1.44434 8.70306 1.44434 8.69798C1.44434 8.6929 1.44434 8.68781 1.44434 8.68273C1.44434 8.67765 1.44434 8.67257 1.44434 8.66748C1.44434 8.6624 1.44434 8.65732 1.44434 8.65223C1.44434 8.64715 1.44434 8.64207 1.44434 8.63699C1.44434 8.6319 1.44434 8.62682 1.44434 8.62174C1.44434 8.61666 1.44434 8.61157 1.44434 8.60649C1.44434 8.60141 1.44434 8.59632 1.44434 8.59124C1.44434 8.58616 1.44434 8.58108 1.44434 8.57599C1.44434 8.57091 1.44434 8.56583 1.44434 8.56074C1.44434 8.55566 1.44434 8.55058 1.44434 8.5455C1.44434 8.54041 1.44434 8.53533 1.44434 8.53025C1.44434 8.52517 1.44434 8.52008 1.44434 8.515C1.44434 8.50992 1.44434 8.50483 1.44434 8.49975C1.44434 8.49467 1.44434 8.48959 1.44434 8.4845C1.44434 8.47942 1.44434 8.47434 1.44434 8.46926C1.44434 8.46417 1.44434 8.45909 1.44434 8.45401C1.44434 8.44892 1.44434 8.44384 1.44434 8.43876C1.44434 8.43368 1.44434 8.42859 1.44434 8.42351C1.44434 8.41843 1.44434 8.41335 1.44434 8.40826C1.44434 8.40318 1.44434 8.3981 1.44434 8.39301C1.44434 8.38793 1.44434 8.38285 1.44434 8.37777C1.44434 8.37268 1.44434 8.3676 1.44434 8.36252C1.44434 8.35744 1.44434 8.35235 1.44434 8.34727C1.44434 8.34219 1.44434 8.3371 1.44434 8.33202C1.44434 8.32694 1.44434 8.32186 1.44434 8.31677C1.44434 8.31169 1.44434 8.30661 1.44434 8.30153C1.44434 8.29644 1.44434 8.29136 1.44434 8.28628C1.44434 8.28119 1.44434 8.27611 1.44434 8.27103C1.44434 8.26595 1.44434 8.26086 1.44434 8.25578C1.44434 8.2507 1.44434 8.24562 1.44434 8.24053C1.44434 8.23545 1.44434 8.23037 1.44434 8.22528C1.44434 8.2202 1.44434 8.21512 1.44434 8.21004C1.44434 8.20495 1.44434 8.19987 1.44434 8.19479C1.44434 8.1897 1.44434 8.18462 1.44434 8.17954C1.44434 8.17446 1.44434 8.16937 1.44434 8.16429C1.44434 8.15921 1.44434 8.15413 1.44434 8.14904C1.44434 8.14396 1.44434 8.13888 1.44434 8.13379C1.44434 8.12871 1.44434 8.12363 1.44434 8.11855C1.44434 8.11346 1.44434 8.10838 1.44434 8.1033C1.44434 8.09822 1.44434 8.09313 1.44434 8.08805C1.44434 8.08297 1.44434 8.07788 1.44434 8.0728C1.44434 8.06772 1.44434 8.06264 1.44434 8.05755C1.44434 8.05247 1.44434 8.04739 1.44434 8.04231C1.44434 8.03722 1.44434 8.03214 1.44434 8.02706C1.44434 8.02197 1.44434 8.01689 1.44434 8.01181C1.44434 8.00673 1.44434 8.00164 1.44434 7.99656C1.44434 7.99148 1.44434 7.9864 1.44434 7.98131C1.44434 7.97623 1.44434 7.97115 1.44434 7.96606C1.44434 7.96098 1.44434 7.9559 1.44434 7.95082C1.44434 7.94573 1.44434 7.94065 1.44434 7.93557C1.44434 7.93049 1.44434 7.9254 1.44434 7.92032C1.44434 7.91524 1.44434 7.91015 1.44434 7.90507C1.44434 7.89999 1.44434 7.89491 1.44434 7.88982C1.44434 7.88474 1.44434 7.87966 1.44434 7.87458C1.44434 7.86949 1.44434 7.86441 1.44434 7.85933C1.44434 7.85424 1.44434 7.84916 1.44434 7.84408C1.44434 7.839 1.44434 7.83391 1.44434 7.82883C1.44434 7.82375 1.44434 7.81866 1.44434 7.81358C1.44434 7.8085 1.44434 7.80342 1.44434 7.79833C1.44434 7.79325 1.44434 7.78817 1.44434 7.78309C1.44434 7.778 1.44434 7.77292 1.44434 7.76784C1.44434 7.76275 1.44434 7.75767 1.44434 7.75259C1.44434 7.74751 1.44434 7.74242 1.44434 7.73734C1.44434 7.73226 1.44434 7.72718 1.44434 7.72209C1.44434 7.71701 1.44434 7.71193 1.44434 7.70684C1.44434 7.70176 1.44434 7.69668 1.44434 7.6916C1.44434 7.68651 1.44434 7.68143 1.44434 7.67635C1.44434 7.67127 1.44434 7.66618 1.44434 7.6611C1.44434 7.65602 1.44434 7.65093 1.44434 7.64585C1.44434 7.64077 1.44434 7.63569 1.44434 7.6306C1.44434 7.62552 1.44434 7.62044 1.44434 7.61536C1.44434 7.61027 1.44434 7.60519 1.44434 7.60011C1.44434 7.59502 1.44434 7.58994 1.44434 7.58486C1.44434 7.57978 1.44434 7.57469 1.44434 7.56961C1.44434 7.56453 1.44434 7.55945 1.44434 7.55436C1.44434 7.54928 1.44434 7.5442 1.44434 7.53911C1.44434 7.53403 1.44434 7.52895 1.44434 7.52387C1.44434 7.51878 1.44434 7.5137 1.44434 7.50862C1.44434 7.50353 1.44434 7.49845 1.44434 7.49337C1.44434 7.48829 1.44434 7.4832 1.44434 7.47812C1.44434 7.47304 1.44434 7.46796 1.44434 7.46287C1.44434 7.45779 1.44434 7.45271 1.44434 7.44762C1.44434 7.44254 1.44434 7.43746 1.44434 7.43238C1.44434 7.42729 1.44434 7.42221 1.44434 7.41713C1.44434 7.41205 1.44434 7.40696 1.44434 7.40188C1.44434 7.3968 1.44434 7.39171 1.44434 7.38663C1.44434 7.38155 1.44434 7.37647 1.44434 7.37138C1.44434 7.3663 1.44434 7.36122 1.44434 7.35614C1.44434 7.35105 1.44434 7.34597 1.44434 7.34089C1.44434 7.3358 1.44434 7.33072 1.44434 7.32564C1.44434 7.32056 1.44434 7.31547 1.44434 7.31039C1.44434 7.30531 1.44434 7.30023 1.44434 7.29514C1.44434 7.29006 1.44434 7.28498 1.44434 7.27989C1.44434 7.27481 1.44434 7.26973 1.44434 7.26465C1.44434 7.25956 1.44434 7.25448 1.44434 7.2494C1.44434 7.24432 1.44434 7.23923 1.44434 7.23415C1.44434 7.22907 1.44434 7.22398 1.44434 7.2189C1.44434 7.21382 1.44434 7.20874 1.44434 7.20365C1.44434 7.19857 1.44434 7.19349 1.44434 7.18841C1.44434 7.18332 1.44434 7.17824 1.44434 7.17316C1.44434 7.16807 1.44434 7.16299 1.44434 7.15791C1.44434 7.15283 1.44434 7.14774 1.44434 7.14266C1.44434 7.13758 1.44434 7.13249 1.44434 7.12741C1.44434 7.12233 1.44434 7.11725 1.44434 7.11216C1.44434 7.10708 1.44434 7.102 1.44434 7.09692C1.44434 7.09183 1.44434 7.08675 1.44434 7.08167C1.44434 7.07658 1.44434 7.0715 1.44434 7.06642C1.44434 7.06134 1.44434 7.05625 1.44434 7.05117C1.44434 7.04609 1.44434 7.04101 1.44434 7.03592C1.44434 7.03084 1.44434 7.02576 1.44434 7.02067C1.44434 7.01559 1.44434 7.01051 1.44434 7.00543C1.44434 7.00034 1.44434 6.99526 1.44434 6.99018C1.44434 6.9851 1.44434 6.98001 1.44434 6.97493C1.44434 6.96985 1.44434 6.96476 1.44434 6.95968C1.44434 6.9546 1.44434 6.94952 1.44434 6.94443C1.44434 6.93935 1.44434 6.93427 1.44434 6.92919C1.44434 6.9241 1.44434 6.91902 1.44434 6.91394C1.44434 6.90885 1.44434 6.90377 1.44434 6.89869C1.44434 6.89361 1.44434 6.88852 1.44434 6.88344C1.44434 6.87836 1.44434 6.87328 1.44434 6.86819C1.44434 6.86311 1.44434 6.85803 1.44434 6.85294C1.44434 6.84786 1.44434 6.84278 1.44434 6.8377C1.44434 6.83261 1.44434 6.82753 1.44434 6.82245C1.44434 6.81737 1.44434 6.81228 1.44434 6.8072C1.44434 6.80212 1.44434 6.79703 1.44434 6.79195C1.44434 6.78687 1.44434 6.78179 1.44434 6.7767C1.44434 6.77162 1.44434 6.76654 1.44434 6.76145C1.44434 6.75637 1.44434 6.75129 1.44434 6.74621C1.44434 6.74112 1.44434 6.73604 1.44434 6.73096C1.44434 6.72588 1.44434 6.72079 1.44434 6.71571C1.44434 6.71063 1.44434 6.70554 1.44434 6.70046C1.44434 6.69538 1.44434 6.6903 1.44434 6.68521C1.44434 6.68013 1.44434 6.67505 1.44434 6.66997C1.44434 6.66488 1.44434 6.6598 1.44434 6.65472C1.44434 6.64963 1.44434 6.64455 1.44434 6.63947C1.44434 6.63439 1.44434 6.6293 1.44434 6.62422C1.44434 6.61914 1.44434 6.61406 1.44434 6.60897C1.44434 6.60389 1.44434 6.59881 1.44434 6.59372C1.44434 6.58864 1.44434 6.58356 1.44434 6.57848C1.44434 6.57339 1.44434 6.56831 1.44434 6.56323C1.44434 6.55815 1.44434 6.55306 1.44434 6.54798C1.44434 6.5429 1.44434 6.53781 1.44434 6.53273C1.44434 6.52765 1.44434 6.52257 1.44434 6.51748C1.44434 6.5124 1.44434 6.50732 1.44434 6.50224C1.44434 6.49715 1.44434 6.49207 1.44434 6.48699C1.44434 6.4819 1.44434 6.47682 1.44434 6.47174C1.44434 6.46666 1.44434 6.46157 1.44434 6.45649C1.44434 6.45141 1.44434 6.44633 1.44434 6.44124C1.44434 6.43616 1.44434 6.43108 1.44434 6.42599C1.44434 6.42091 1.44434 6.41583 1.44434 6.41075C1.44434 6.40566 1.44434 6.40058 1.44434 6.3955C1.44434 6.39041 1.44434 6.38533 1.44434 6.38025C1.44434 6.37517 1.44434 6.37008 1.44434 6.365C1.44434 6.35992 1.44434 6.35484 1.44434 6.34975C1.44434 6.34467 1.44434 6.33959 1.44434 6.3345C1.44434 6.32942 1.44434 6.32434 1.44434 6.31926C1.44434 6.31417 1.44434 6.30909 1.44434 6.30401C1.44434 6.29893 1.44434 6.29384 1.44434 6.28876C1.44434 6.28368 1.44434 6.27859 1.44434 6.27351C1.44434 6.26843 1.44434 6.26335 1.44434 6.25826C1.44434 6.25318 1.44434 6.2481 1.44434 6.24302C1.44434 6.23793 1.44434 6.23285 1.44434 6.22777C1.44434 6.22268 1.44434 6.2176 1.44434 6.21252C1.44434 6.20744 1.44434 6.20235 1.44434 6.19727C1.44434 6.19219 1.44434 6.18711 1.44434 6.18202C1.44434 6.17694 1.44434 6.17186 1.44434 6.16677C1.44434 6.16169 1.44434 6.15661 1.44434 6.15153C1.44434 6.14644 1.44434 6.14136 1.44434 6.13628C1.44434 6.1312 1.44434 6.12611 1.44434 6.12103C1.44434 6.11595 1.44434 6.11086 1.44434 6.10578C1.44434 6.1007 1.44434 6.09562 1.44434 6.09053C1.44434 6.08545 1.44434 6.08037 1.44434 6.07528C1.44434 6.0702 1.44434 6.06512 1.44434 6.06004C1.44434 6.05495 1.44434 6.04987 1.44434 6.04479C1.44434 6.03971 1.44434 6.03462 1.44434 6.02954C1.44434 6.02446 1.44434 6.01937 1.44434 6.01429C1.44434 6.00921 1.44434 6.00413 1.44434 5.99904C1.44434 5.99396 1.44434 5.98888 1.44434 5.9838C1.44434 5.97871 1.44434 5.97363 1.44434 5.96855C1.44434 5.96346 1.44434 5.95838 1.44434 5.9533C1.44434 5.94822 1.44434 5.94313 1.44434 5.93805C1.44434 5.93297 1.44434 5.92789 1.44434 5.9228C1.44434 5.91772 1.44434 5.91264 1.44434 5.90755C1.44434 5.90247 1.44434 5.89739 1.44434 5.89231C1.44434 5.88722 1.44434 5.88214 1.44434 5.87706C1.44434 5.87198 1.44434 5.86689 1.44434 5.86181C1.44434 5.85673 1.44434 5.85164 1.44434 5.84656C1.44434 5.84148 1.44434 5.8364 1.44434 5.83131C1.44434 5.82623 1.44434 5.82115 1.44434 5.81607C1.44434 5.81098 1.44434 5.8059 1.44434 5.80082C1.44434 5.79573 1.44434 5.79065 1.44434 5.78557C1.44434 5.78049 1.44434 5.7754 1.44434 5.77032C1.44434 5.76524 1.44434 5.76016 1.44434 5.75507C1.44434 5.74999 1.44434 5.74491 1.44434 5.73982C1.44434 5.73474 1.44434 5.72966 1.44434 5.72458C1.44434 5.71949 1.44434 5.71441 1.44434 5.70933C1.44434 5.70424 1.44434 5.69916 1.44434 5.69408C1.44434 5.689 1.44434 5.68391 1.44434 5.67883C1.44434 5.67375 1.44434 5.66867 1.44434 5.66358C1.44434 5.6585 1.44434 5.65342 1.44434 5.64833C1.44434 5.64325 1.44434 5.63817 1.44434 5.63309C1.44434 5.628 1.44434 5.62292 1.44434 5.61784C1.44434 5.61276 1.44434 5.60767 1.44434 5.60259C1.44434 5.59751 1.44434 5.59242 1.44434 5.58734C1.44434 5.58226 1.44434 5.57718 1.44434 5.57209C1.44434 5.56701 1.44434 5.56193 1.44434 5.55685C1.44434 5.55176 1.44434 5.54668 1.44434 5.5416C1.44434 5.53651 1.44434 5.53143 1.44434 5.52635C1.44434 5.52127 1.44434 5.51618 1.44434 5.5111C1.44434 5.50602 1.44434 5.50094 1.44434 5.49585C1.44434 5.49077 1.44434 5.48569 1.44434 5.4806C1.44434 5.47552 1.44434 5.47044 1.44434 5.46536C1.44434 5.46027 1.44434 5.45519 1.44434 5.45011C1.44434 5.44503 1.44434 5.43994 1.44434 5.43486C1.44434 5.42978 1.44434 5.42469 1.44434 5.41961C1.44434 5.41453 1.44434 5.40945 1.44434 5.40436C1.44434 5.39928 1.44434 5.3942 1.44434 5.38912C1.44434 5.38403 1.44434 5.37895 1.44434 5.37387C1.44434 5.36878 1.44434 5.3637 1.44434 5.35862C1.44434 5.35354 1.44434 5.34845 1.44434 5.34337C1.44434 5.33829 1.44434 5.3332 1.44434 5.32812C1.44434 5.32304 1.44434 5.31796 1.44434 5.31287C1.44434 5.30779 1.44434 5.30271 1.44434 5.29763C1.44434 5.29254 1.44434 5.28746 1.44434 5.28238C1.44434 5.27729 1.44434 5.27221 1.44434 5.26713C1.44434 5.26205 1.44434 5.25696 1.44434 5.25188C1.44434 5.2468 1.44434 5.24172 1.44434 5.23663C1.44434 5.23155 1.44434 5.22647 1.44434 5.22138C1.44434 5.2163 1.44434 5.21122 1.44434 5.20614C1.44434 5.20105 1.44434 5.19597 1.44434 5.19089C1.44434 5.18581 1.44434 5.18072 1.44434 5.17564C1.44434 5.17056 1.44434 5.16547 1.44434 5.16039C1.44434 5.15531 1.44434 5.15023 1.44434 5.14514C1.44434 5.14006 1.44434 5.13498 1.44434 5.1299C1.44434 5.12481 1.44434 5.11973 1.44434 5.11465C1.44434 5.10956 1.44434 5.10448 1.44434 5.0994C1.44434 5.09432 1.44434 5.08923 1.44434 5.08415C1.44434 5.07907 1.44434 5.07399 1.44434 5.0689C1.44434 5.06382 1.44434 5.05874 1.44434 5.05365C1.44434 5.04857 1.44434 5.04349 1.44434 5.03841C1.44434 5.03332 1.44434 5.02824 1.44434 5.02316C1.44434 5.01807 1.44434 5.01299 1.44434 5.00791C1.44434 5.00283 1.44434 4.99774 1.44434 4.99266C1.44434 4.98758 1.44434 4.9825 1.44434 4.97741C1.44434 4.97233 1.44434 4.96725 1.44434 4.96216C1.44434 4.95708 1.44434 4.952 1.44434 4.94692C1.44434 4.94183 1.44434 4.93675 1.44434 4.93167C1.44434 4.92659 1.44434 4.9215 1.44434 4.91642C1.44434 4.91134 1.44434 4.90625 1.44434 4.90117C1.44434 4.89609 1.44434 4.89101 1.44434 4.88592C1.44434 4.88084 1.44434 4.87576 1.44434 4.87068C1.44434 4.86559 1.44434 4.86051 1.44434 4.85543C1.44434 4.85034 1.44434 4.84526 1.44434 4.84018C1.44434 4.8351 1.44434 4.83001 1.44434 4.82493C1.44434 4.81985 1.44434 4.81477 1.44434 4.80968C1.44434 4.8046 1.44434 4.79952 1.44434 4.79443C1.44434 4.78935 1.44434 4.78427 1.44434 4.77919C1.44434 4.7741 1.44434 4.76902 1.44434 4.76394C1.44434 4.75886 1.44434 4.75377 1.44434 4.74869C1.44434 4.74361 1.44434 4.73852 1.44434 4.73344C1.44434 4.72836 1.44434 4.72328 1.44434 4.71819C1.44434 4.71311 1.44434 4.70803 1.44434 4.70295C1.44434 4.69786 1.44434 4.69278 1.44434 4.6877C1.44434 4.68261 1.44434 4.67753 1.44434 4.67245C1.44434 4.66737 1.44434 4.66228 1.44434 4.6572C1.44434 4.65212 1.44434 4.64703 1.44434 4.64195C1.44434 4.63687 1.44434 4.63179 1.44434 4.6267C1.44434 4.62162 1.44434 4.61654 1.44434 4.61146C1.44434 4.60637 1.44434 4.60129 1.44434 4.59621C1.44434 4.59112 1.44434 4.58604 1.44434 4.58096C1.44434 4.57588 1.44434 4.57079 1.44434 4.56571C1.44434 4.56063 1.44434 4.55555 1.44434 4.55046C1.44434 4.54538 1.44434 4.5403 1.44434 4.53521C1.44434 4.53013 1.44434 4.52505 1.44434 4.51997C1.44434 4.51488 1.44434 4.5098 1.44434 4.50472C1.44434 4.49964 1.44434 4.49455 1.44434 4.48947C1.44434 4.48439 1.44434 4.4793 1.44434 4.47422C1.44434 4.46914 1.44434 4.46406 1.44434 4.45897C1.44434 4.45389 1.44434 4.44881 1.44434 4.44373C1.44434 4.43864 1.44434 4.43356 1.44434 4.42848C1.44434 4.42339 1.44434 4.41831 1.44434 4.41323H-0.555664C-0.555664 4.41831 -0.555664 4.42339 -0.555664 4.42848C-0.555664 4.43356 -0.555664 4.43864 -0.555664 4.44373C-0.555664 4.44881 -0.555664 4.45389 -0.555664 4.45897C-0.555664 4.46406 -0.555664 4.46914 -0.555664 4.47422C-0.555664 4.4793 -0.555664 4.48439 -0.555664 4.48947C-0.555664 4.49455 -0.555664 4.49964 -0.555664 4.50472C-0.555664 4.5098 -0.555664 4.51488 -0.555664 4.51997C-0.555664 4.52505 -0.555664 4.53013 -0.555664 4.53521C-0.555664 4.5403 -0.555664 4.54538 -0.555664 4.55046C-0.555664 4.55555 -0.555664 4.56063 -0.555664 4.56571C-0.555664 4.57079 -0.555664 4.57588 -0.555664 4.58096C-0.555664 4.58604 -0.555664 4.59112 -0.555664 4.59621C-0.555664 4.60129 -0.555664 4.60637 -0.555664 4.61146C-0.555664 4.61654 -0.555664 4.62162 -0.555664 4.6267C-0.555664 4.63179 -0.555664 4.63687 -0.555664 4.64195C-0.555664 4.64703 -0.555664 4.65212 -0.555664 4.6572C-0.555664 4.66228 -0.555664 4.66737 -0.555664 4.67245C-0.555664 4.67753 -0.555664 4.68261 -0.555664 4.6877C-0.555664 4.69278 -0.555664 4.69786 -0.555664 4.70295C-0.555664 4.70803 -0.555664 4.71311 -0.555664 4.71819C-0.555664 4.72328 -0.555664 4.72836 -0.555664 4.73344C-0.555664 4.73852 -0.555664 4.74361 -0.555664 4.74869C-0.555664 4.75377 -0.555664 4.75886 -0.555664 4.76394C-0.555664 4.76902 -0.555664 4.7741 -0.555664 4.77919C-0.555664 4.78427 -0.555664 4.78935 -0.555664 4.79443C-0.555664 4.79952 -0.555664 4.8046 -0.555664 4.80968C-0.555664 4.81477 -0.555664 4.81985 -0.555664 4.82493C-0.555664 4.83001 -0.555664 4.8351 -0.555664 4.84018C-0.555664 4.84526 -0.555664 4.85034 -0.555664 4.85543C-0.555664 4.86051 -0.555664 4.86559 -0.555664 4.87068C-0.555664 4.87576 -0.555664 4.88084 -0.555664 4.88592C-0.555664 4.89101 -0.555664 4.89609 -0.555664 4.90117C-0.555664 4.90625 -0.555664 4.91134 -0.555664 4.91642C-0.555664 4.9215 -0.555664 4.92659 -0.555664 4.93167C-0.555664 4.93675 -0.555664 4.94183 -0.555664 4.94692C-0.555664 4.952 -0.555664 4.95708 -0.555664 4.96216C-0.555664 4.96725 -0.555664 4.97233 -0.555664 4.97741C-0.555664 4.9825 -0.555664 4.98758 -0.555664 4.99266C-0.555664 4.99774 -0.555664 5.00283 -0.555664 5.00791C-0.555664 5.01299 -0.555664 5.01807 -0.555664 5.02316C-0.555664 5.02824 -0.555664 5.03332 -0.555664 5.03841C-0.555664 5.04349 -0.555664 5.04857 -0.555664 5.05365C-0.555664 5.05874 -0.555664 5.06382 -0.555664 5.0689C-0.555664 5.07399 -0.555664 5.07907 -0.555664 5.08415C-0.555664 5.08923 -0.555664 5.09432 -0.555664 5.0994C-0.555664 5.10448 -0.555664 5.10956 -0.555664 5.11465C-0.555664 5.11973 -0.555664 5.12481 -0.555664 5.1299C-0.555664 5.13498 -0.555664 5.14006 -0.555664 5.14514C-0.555664 5.15023 -0.555664 5.15531 -0.555664 5.16039C-0.555664 5.16547 -0.555664 5.17056 -0.555664 5.17564C-0.555664 5.18072 -0.555664 5.18581 -0.555664 5.19089C-0.555664 5.19597 -0.555664 5.20105 -0.555664 5.20614C-0.555664 5.21122 -0.555664 5.2163 -0.555664 5.22138C-0.555664 5.22647 -0.555664 5.23155 -0.555664 5.23663C-0.555664 5.24172 -0.555664 5.2468 -0.555664 5.25188C-0.555664 5.25696 -0.555664 5.26205 -0.555664 5.26713C-0.555664 5.27221 -0.555664 5.27729 -0.555664 5.28238C-0.555664 5.28746 -0.555664 5.29254 -0.555664 5.29763C-0.555664 5.30271 -0.555664 5.30779 -0.555664 5.31287C-0.555664 5.31796 -0.555664 5.32304 -0.555664 5.32812C-0.555664 5.3332 -0.555664 5.33829 -0.555664 5.34337C-0.555664 5.34845 -0.555664 5.35354 -0.555664 5.35862C-0.555664 5.3637 -0.555664 5.36878 -0.555664 5.37387C-0.555664 5.37895 -0.555664 5.38403 -0.555664 5.38912C-0.555664 5.3942 -0.555664 5.39928 -0.555664 5.40436C-0.555664 5.40945 -0.555664 5.41453 -0.555664 5.41961C-0.555664 5.42469 -0.555664 5.42978 -0.555664 5.43486C-0.555664 5.43994 -0.555664 5.44503 -0.555664 5.45011C-0.555664 5.45519 -0.555664 5.46027 -0.555664 5.46536C-0.555664 5.47044 -0.555664 5.47552 -0.555664 5.4806C-0.555664 5.48569 -0.555664 5.49077 -0.555664 5.49585C-0.555664 5.50094 -0.555664 5.50602 -0.555664 5.5111C-0.555664 5.51618 -0.555664 5.52127 -0.555664 5.52635C-0.555664 5.53143 -0.555664 5.53651 -0.555664 5.5416C-0.555664 5.54668 -0.555664 5.55176 -0.555664 5.55685C-0.555664 5.56193 -0.555664 5.56701 -0.555664 5.57209C-0.555664 5.57718 -0.555664 5.58226 -0.555664 5.58734C-0.555664 5.59242 -0.555664 5.59751 -0.555664 5.60259C-0.555664 5.60767 -0.555664 5.61276 -0.555664 5.61784C-0.555664 5.62292 -0.555664 5.628 -0.555664 5.63309C-0.555664 5.63817 -0.555664 5.64325 -0.555664 5.64833C-0.555664 5.65342 -0.555664 5.6585 -0.555664 5.66358C-0.555664 5.66867 -0.555664 5.67375 -0.555664 5.67883C-0.555664 5.68391 -0.555664 5.689 -0.555664 5.69408C-0.555664 5.69916 -0.555664 5.70424 -0.555664 5.70933C-0.555664 5.71441 -0.555664 5.71949 -0.555664 5.72458C-0.555664 5.72966 -0.555664 5.73474 -0.555664 5.73982C-0.555664 5.74491 -0.555664 5.74999 -0.555664 5.75507C-0.555664 5.76016 -0.555664 5.76524 -0.555664 5.77032C-0.555664 5.7754 -0.555664 5.78049 -0.555664 5.78557C-0.555664 5.79065 -0.555664 5.79573 -0.555664 5.80082C-0.555664 5.8059 -0.555664 5.81098 -0.555664 5.81607C-0.555664 5.82115 -0.555664 5.82623 -0.555664 5.83131C-0.555664 5.8364 -0.555664 5.84148 -0.555664 5.84656C-0.555664 5.85164 -0.555664 5.85673 -0.555664 5.86181C-0.555664 5.86689 -0.555664 5.87198 -0.555664 5.87706C-0.555664 5.88214 -0.555664 5.88722 -0.555664 5.89231C-0.555664 5.89739 -0.555664 5.90247 -0.555664 5.90755C-0.555664 5.91264 -0.555664 5.91772 -0.555664 5.9228C-0.555664 5.92789 -0.555664 5.93297 -0.555664 5.93805C-0.555664 5.94313 -0.555664 5.94822 -0.555664 5.9533C-0.555664 5.95838 -0.555664 5.96346 -0.555664 5.96855C-0.555664 5.97363 -0.555664 5.97871 -0.555664 5.9838C-0.555664 5.98888 -0.555664 5.99396 -0.555664 5.99904C-0.555664 6.00413 -0.555664 6.00921 -0.555664 6.01429C-0.555664 6.01937 -0.555664 6.02446 -0.555664 6.02954C-0.555664 6.03462 -0.555664 6.03971 -0.555664 6.04479C-0.555664 6.04987 -0.555664 6.05495 -0.555664 6.06004C-0.555664 6.06512 -0.555664 6.0702 -0.555664 6.07528C-0.555664 6.08037 -0.555664 6.08545 -0.555664 6.09053C-0.555664 6.09562 -0.555664 6.1007 -0.555664 6.10578C-0.555664 6.11086 -0.555664 6.11595 -0.555664 6.12103C-0.555664 6.12611 -0.555664 6.1312 -0.555664 6.13628C-0.555664 6.14136 -0.555664 6.14644 -0.555664 6.15153C-0.555664 6.15661 -0.555664 6.16169 -0.555664 6.16677C-0.555664 6.17186 -0.555664 6.17694 -0.555664 6.18202C-0.555664 6.18711 -0.555664 6.19219 -0.555664 6.19727C-0.555664 6.20235 -0.555664 6.20744 -0.555664 6.21252C-0.555664 6.2176 -0.555664 6.22268 -0.555664 6.22777C-0.555664 6.23285 -0.555664 6.23793 -0.555664 6.24302C-0.555664 6.2481 -0.555664 6.25318 -0.555664 6.25826C-0.555664 6.26335 -0.555664 6.26843 -0.555664 6.27351C-0.555664 6.27859 -0.555664 6.28368 -0.555664 6.28876C-0.555664 6.29384 -0.555664 6.29893 -0.555664 6.30401C-0.555664 6.30909 -0.555664 6.31417 -0.555664 6.31926C-0.555664 6.32434 -0.555664 6.32942 -0.555664 6.3345C-0.555664 6.33959 -0.555664 6.34467 -0.555664 6.34975C-0.555664 6.35484 -0.555664 6.35992 -0.555664 6.365C-0.555664 6.37008 -0.555664 6.37517 -0.555664 6.38025C-0.555664 6.38533 -0.555664 6.39041 -0.555664 6.3955C-0.555664 6.40058 -0.555664 6.40566 -0.555664 6.41075C-0.555664 6.41583 -0.555664 6.42091 -0.555664 6.42599C-0.555664 6.43108 -0.555664 6.43616 -0.555664 6.44124C-0.555664 6.44633 -0.555664 6.45141 -0.555664 6.45649C-0.555664 6.46157 -0.555664 6.46666 -0.555664 6.47174C-0.555664 6.47682 -0.555664 6.4819 -0.555664 6.48699C-0.555664 6.49207 -0.555664 6.49715 -0.555664 6.50224C-0.555664 6.50732 -0.555664 6.5124 -0.555664 6.51748C-0.555664 6.52257 -0.555664 6.52765 -0.555664 6.53273C-0.555664 6.53781 -0.555664 6.5429 -0.555664 6.54798C-0.555664 6.55306 -0.555664 6.55815 -0.555664 6.56323C-0.555664 6.56831 -0.555664 6.57339 -0.555664 6.57848C-0.555664 6.58356 -0.555664 6.58864 -0.555664 6.59372C-0.555664 6.59881 -0.555664 6.60389 -0.555664 6.60897C-0.555664 6.61406 -0.555664 6.61914 -0.555664 6.62422C-0.555664 6.6293 -0.555664 6.63439 -0.555664 6.63947C-0.555664 6.64455 -0.555664 6.64963 -0.555664 6.65472C-0.555664 6.6598 -0.555664 6.66488 -0.555664 6.66997C-0.555664 6.67505 -0.555664 6.68013 -0.555664 6.68521C-0.555664 6.6903 -0.555664 6.69538 -0.555664 6.70046C-0.555664 6.70554 -0.555664 6.71063 -0.555664 6.71571C-0.555664 6.72079 -0.555664 6.72588 -0.555664 6.73096C-0.555664 6.73604 -0.555664 6.74112 -0.555664 6.74621C-0.555664 6.75129 -0.555664 6.75637 -0.555664 6.76145C-0.555664 6.76654 -0.555664 6.77162 -0.555664 6.7767C-0.555664 6.78179 -0.555664 6.78687 -0.555664 6.79195C-0.555664 6.79703 -0.555664 6.80212 -0.555664 6.8072C-0.555664 6.81228 -0.555664 6.81737 -0.555664 6.82245C-0.555664 6.82753 -0.555664 6.83261 -0.555664 6.8377C-0.555664 6.84278 -0.555664 6.84786 -0.555664 6.85294C-0.555664 6.85803 -0.555664 6.86311 -0.555664 6.86819C-0.555664 6.87328 -0.555664 6.87836 -0.555664 6.88344C-0.555664 6.88852 -0.555664 6.89361 -0.555664 6.89869C-0.555664 6.90377 -0.555664 6.90885 -0.555664 6.91394C-0.555664 6.91902 -0.555664 6.9241 -0.555664 6.92919C-0.555664 6.93427 -0.555664 6.93935 -0.555664 6.94443C-0.555664 6.94952 -0.555664 6.9546 -0.555664 6.95968C-0.555664 6.96476 -0.555664 6.96985 -0.555664 6.97493C-0.555664 6.98001 -0.555664 6.9851 -0.555664 6.99018C-0.555664 6.99526 -0.555664 7.00034 -0.555664 7.00543C-0.555664 7.01051 -0.555664 7.01559 -0.555664 7.02067C-0.555664 7.02576 -0.555664 7.03084 -0.555664 7.03592C-0.555664 7.04101 -0.555664 7.04609 -0.555664 7.05117C-0.555664 7.05625 -0.555664 7.06134 -0.555664 7.06642C-0.555664 7.0715 -0.555664 7.07658 -0.555664 7.08167C-0.555664 7.08675 -0.555664 7.09183 -0.555664 7.09692C-0.555664 7.102 -0.555664 7.10708 -0.555664 7.11216C-0.555664 7.11725 -0.555664 7.12233 -0.555664 7.12741C-0.555664 7.13249 -0.555664 7.13758 -0.555664 7.14266C-0.555664 7.14774 -0.555664 7.15283 -0.555664 7.15791C-0.555664 7.16299 -0.555664 7.16807 -0.555664 7.17316C-0.555664 7.17824 -0.555664 7.18332 -0.555664 7.18841C-0.555664 7.19349 -0.555664 7.19857 -0.555664 7.20365C-0.555664 7.20874 -0.555664 7.21382 -0.555664 7.2189C-0.555664 7.22398 -0.555664 7.22907 -0.555664 7.23415C-0.555664 7.23923 -0.555664 7.24432 -0.555664 7.2494C-0.555664 7.25448 -0.555664 7.25956 -0.555664 7.26465C-0.555664 7.26973 -0.555664 7.27481 -0.555664 7.27989C-0.555664 7.28498 -0.555664 7.29006 -0.555664 7.29514C-0.555664 7.30023 -0.555664 7.30531 -0.555664 7.31039C-0.555664 7.31547 -0.555664 7.32056 -0.555664 7.32564C-0.555664 7.33072 -0.555664 7.3358 -0.555664 7.34089C-0.555664 7.34597 -0.555664 7.35105 -0.555664 7.35614C-0.555664 7.36122 -0.555664 7.3663 -0.555664 7.37138C-0.555664 7.37647 -0.555664 7.38155 -0.555664 7.38663C-0.555664 7.39171 -0.555664 7.3968 -0.555664 7.40188C-0.555664 7.40696 -0.555664 7.41205 -0.555664 7.41713C-0.555664 7.42221 -0.555664 7.42729 -0.555664 7.43238C-0.555664 7.43746 -0.555664 7.44254 -0.555664 7.44762C-0.555664 7.45271 -0.555664 7.45779 -0.555664 7.46287C-0.555664 7.46796 -0.555664 7.47304 -0.555664 7.47812C-0.555664 7.4832 -0.555664 7.48829 -0.555664 7.49337C-0.555664 7.49845 -0.555664 7.50353 -0.555664 7.50862C-0.555664 7.5137 -0.555664 7.51878 -0.555664 7.52387C-0.555664 7.52895 -0.555664 7.53403 -0.555664 7.53911C-0.555664 7.5442 -0.555664 7.54928 -0.555664 7.55436C-0.555664 7.55945 -0.555664 7.56453 -0.555664 7.56961C-0.555664 7.57469 -0.555664 7.57978 -0.555664 7.58486C-0.555664 7.58994 -0.555664 7.59502 -0.555664 7.60011C-0.555664 7.60519 -0.555664 7.61027 -0.555664 7.61536C-0.555664 7.62044 -0.555664 7.62552 -0.555664 7.6306C-0.555664 7.63569 -0.555664 7.64077 -0.555664 7.64585C-0.555664 7.65093 -0.555664 7.65602 -0.555664 7.6611C-0.555664 7.66618 -0.555664 7.67127 -0.555664 7.67635C-0.555664 7.68143 -0.555664 7.68651 -0.555664 7.6916C-0.555664 7.69668 -0.555664 7.70176 -0.555664 7.70684C-0.555664 7.71193 -0.555664 7.71701 -0.555664 7.72209C-0.555664 7.72718 -0.555664 7.73226 -0.555664 7.73734C-0.555664 7.74242 -0.555664 7.74751 -0.555664 7.75259C-0.555664 7.75767 -0.555664 7.76275 -0.555664 7.76784C-0.555664 7.77292 -0.555664 7.778 -0.555664 7.78309C-0.555664 7.78817 -0.555664 7.79325 -0.555664 7.79833C-0.555664 7.80342 -0.555664 7.8085 -0.555664 7.81358C-0.555664 7.81866 -0.555664 7.82375 -0.555664 7.82883C-0.555664 7.83391 -0.555664 7.839 -0.555664 7.84408C-0.555664 7.84916 -0.555664 7.85424 -0.555664 7.85933C-0.555664 7.86441 -0.555664 7.86949 -0.555664 7.87458C-0.555664 7.87966 -0.555664 7.88474 -0.555664 7.88982C-0.555664 7.89491 -0.555664 7.89999 -0.555664 7.90507C-0.555664 7.91015 -0.555664 7.91524 -0.555664 7.92032C-0.555664 7.9254 -0.555664 7.93049 -0.555664 7.93557C-0.555664 7.94065 -0.555664 7.94573 -0.555664 7.95082C-0.555664 7.9559 -0.555664 7.96098 -0.555664 7.96606C-0.555664 7.97115 -0.555664 7.97623 -0.555664 7.98131C-0.555664 7.9864 -0.555664 7.99148 -0.555664 7.99656C-0.555664 8.00164 -0.555664 8.00673 -0.555664 8.01181C-0.555664 8.01689 -0.555664 8.02197 -0.555664 8.02706C-0.555664 8.03214 -0.555664 8.03722 -0.555664 8.04231C-0.555664 8.04739 -0.555664 8.05247 -0.555664 8.05755C-0.555664 8.06264 -0.555664 8.06772 -0.555664 8.0728C-0.555664 8.07788 -0.555664 8.08297 -0.555664 8.08805C-0.555664 8.09313 -0.555664 8.09822 -0.555664 8.1033C-0.555664 8.10838 -0.555664 8.11346 -0.555664 8.11855C-0.555664 8.12363 -0.555664 8.12871 -0.555664 8.13379C-0.555664 8.13888 -0.555664 8.14396 -0.555664 8.14904C-0.555664 8.15413 -0.555664 8.15921 -0.555664 8.16429C-0.555664 8.16937 -0.555664 8.17446 -0.555664 8.17954C-0.555664 8.18462 -0.555664 8.1897 -0.555664 8.19479C-0.555664 8.19987 -0.555664 8.20495 -0.555664 8.21004C-0.555664 8.21512 -0.555664 8.2202 -0.555664 8.22528C-0.555664 8.23037 -0.555664 8.23545 -0.555664 8.24053C-0.555664 8.24562 -0.555664 8.2507 -0.555664 8.25578C-0.555664 8.26086 -0.555664 8.26595 -0.555664 8.27103C-0.555664 8.27611 -0.555664 8.28119 -0.555664 8.28628C-0.555664 8.29136 -0.555664 8.29644 -0.555664 8.30153C-0.555664 8.30661 -0.555664 8.31169 -0.555664 8.31677C-0.555664 8.32186 -0.555664 8.32694 -0.555664 8.33202C-0.555664 8.3371 -0.555664 8.34219 -0.555664 8.34727C-0.555664 8.35235 -0.555664 8.35744 -0.555664 8.36252C-0.555664 8.3676 -0.555664 8.37268 -0.555664 8.37777C-0.555664 8.38285 -0.555664 8.38793 -0.555664 8.39301C-0.555664 8.3981 -0.555664 8.40318 -0.555664 8.40826C-0.555664 8.41335 -0.555664 8.41843 -0.555664 8.42351C-0.555664 8.42859 -0.555664 8.43368 -0.555664 8.43876C-0.555664 8.44384 -0.555664 8.44892 -0.555664 8.45401C-0.555664 8.45909 -0.555664 8.46417 -0.555664 8.46926C-0.555664 8.47434 -0.555664 8.47942 -0.555664 8.4845C-0.555664 8.48959 -0.555664 8.49467 -0.555664 8.49975C-0.555664 8.50483 -0.555664 8.50992 -0.555664 8.515C-0.555664 8.52008 -0.555664 8.52517 -0.555664 8.53025C-0.555664 8.53533 -0.555664 8.54041 -0.555664 8.5455C-0.555664 8.55058 -0.555664 8.55566 -0.555664 8.56074C-0.555664 8.56583 -0.555664 8.57091 -0.555664 8.57599C-0.555664 8.58108 -0.555664 8.58616 -0.555664 8.59124C-0.555664 8.59632 -0.555664 8.60141 -0.555664 8.60649C-0.555664 8.61157 -0.555664 8.61666 -0.555664 8.62174C-0.555664 8.62682 -0.555664 8.6319 -0.555664 8.63699C-0.555664 8.64207 -0.555664 8.64715 -0.555664 8.65223C-0.555664 8.65732 -0.555664 8.6624 -0.555664 8.66748C-0.555664 8.67257 -0.555664 8.67765 -0.555664 8.68273C-0.555664 8.68781 -0.555664 8.6929 -0.555664 8.69798C-0.555664 8.70306 -0.555664 8.70814 -0.555664 8.71323C-0.555664 8.71831 -0.555664 8.72339 -0.555664 8.72848C-0.555664 8.73356 -0.555664 8.73864 -0.555664 8.74372C-0.555664 8.74881 -0.555664 8.75389 -0.555664 8.75897C-0.555664 8.76405 -0.555664 8.76914 -0.555664 8.77422C-0.555664 8.7793 -0.555664 8.78439 -0.555664 8.78947C-0.555664 8.79455 -0.555664 8.79963 -0.555664 8.80472C-0.555664 8.8098 -0.555664 8.81488 -0.555664 8.81996C-0.555664 8.82505 -0.555664 8.83013 -0.555664 8.83521C-0.555664 8.8403 -0.555664 8.84538 -0.555664 8.85046C-0.555664 8.85554 -0.555664 8.86063 -0.555664 8.86571C-0.555664 8.87079 -0.555664 8.87587 -0.555664 8.88096C-0.555664 8.88604 -0.555664 8.89112 -0.555664 8.89621C-0.555664 8.90129 -0.555664 8.90637 -0.555664 8.91145C-0.555664 8.91654 -0.555664 8.92162 -0.555664 8.9267C-0.555664 8.93178 -0.555664 8.93687 -0.555664 8.94195C-0.555664 8.94703 -0.555664 8.95212 -0.555664 8.9572C-0.555664 8.96228 -0.555664 8.96736 -0.555664 8.97245C-0.555664 8.97753 -0.555664 8.98261 -0.555664 8.9877C-0.555664 8.99278 -0.555664 8.99786 -0.555664 9.00294C-0.555664 9.00803 -0.555664 9.01311 -0.555664 9.01819C-0.555664 9.02327 -0.555664 9.02836 -0.555664 9.03344C-0.555664 9.03852 -0.555664 9.04361 -0.555664 9.04869C-0.555664 9.05377 -0.555664 9.05885 -0.555664 9.06394C-0.555664 9.06902 -0.555664 9.0741 -0.555664 9.07918C-0.555664 9.08427 -0.555664 9.08935 -0.555664 9.09443C-0.555664 9.09952 -0.555664 9.1046 -0.555664 9.10968C-0.555664 9.11476 -0.555664 9.11985 -0.555664 9.12493C-0.555664 9.13001 -0.555664 9.13509 -0.555664 9.14018C-0.555664 9.14526 -0.555664 9.15034 -0.555664 9.15543C-0.555664 9.16051 -0.555664 9.16559 -0.555664 9.17067C-0.555664 9.17576 -0.555664 9.18084 -0.555664 9.18592C-0.555664 9.191 -0.555664 9.19609 -0.555664 9.20117C-0.555664 9.20625 -0.555664 9.21134 -0.555664 9.21642C-0.555664 9.2215 -0.555664 9.22658 -0.555664 9.23167C-0.555664 9.23675 -0.555664 9.24183 -0.555664 9.24691C-0.555664 9.252 -0.555664 9.25708 -0.555664 9.26216C-0.555664 9.26725 -0.555664 9.27233 -0.555664 9.27741C-0.555664 9.28249 -0.555664 9.28758 -0.555664 9.29266C-0.555664 9.29774 -0.555664 9.30283 -0.555664 9.30791C-0.555664 9.31299 -0.555664 9.31807 -0.555664 9.32316C-0.555664 9.32824 -0.555664 9.33332 -0.555664 9.3384C-0.555664 9.34349 -0.555664 9.34857 -0.555664 9.35365C-0.555664 9.35874 -0.555664 9.36382 -0.555664 9.3689C-0.555664 9.37398 -0.555664 9.37907 -0.555664 9.38415C-0.555664 9.38923 -0.555664 9.39431 -0.555664 9.3994C-0.555664 9.40448 -0.555664 9.40956 -0.555664 9.41465C-0.555664 9.41973 -0.555664 9.42481 -0.555664 9.42989C-0.555664 9.43498 -0.555664 9.44006 -0.555664 9.44514C-0.555664 9.45022 -0.555664 9.45531 -0.555664 9.46039C-0.555664 9.46547 -0.555664 9.47056 -0.555664 9.47564C-0.555664 9.48072 -0.555664 9.4858 -0.555664 9.49089C-0.555664 9.49597 -0.555664 9.50105 -0.555664 9.50613C-0.555664 9.51122 -0.555664 9.5163 -0.555664 9.52138C-0.555664 9.52647 -0.555664 9.53155 -0.555664 9.53663C-0.555664 9.54171 -0.555664 9.5468 -0.555664 9.55188C-0.555664 9.55696 -0.555664 9.56204 -0.555664 9.56713C-0.555664 9.57221 -0.555664 9.57729 -0.555664 9.58238C-0.555664 9.58746 -0.555664 9.59254 -0.555664 9.59762C-0.555664 9.60271 -0.555664 9.60779 -0.555664 9.61287C-0.555664 9.61795 -0.555664 9.62304 -0.555664 9.62812C-0.555664 9.6332 -0.555664 9.63829 -0.555664 9.64337C-0.555664 9.64845 -0.555664 9.65353 -0.555664 9.65862C-0.555664 9.6637 -0.555664 9.66878 -0.555664 9.67387C-0.555664 9.67895 -0.555664 9.68403 -0.555664 9.68911C-0.555664 9.6942 -0.555664 9.69928 -0.555664 9.70436C-0.555664 9.70944 -0.555664 9.71453 -0.555664 9.71961C-0.555664 9.72469 -0.555664 9.72978 -0.555664 9.73486C-0.555664 9.73994 -0.555664 9.74502 -0.555664 9.75011C-0.555664 9.75519 -0.555664 9.76027 -0.555664 9.76535C-0.555664 9.77044 -0.555664 9.77552 -0.555664 9.7806C-0.555664 9.78569 -0.555664 9.79077 -0.555664 9.79585C-0.555664 9.80093 -0.555664 9.80602 -0.555664 9.8111C-0.555664 9.81618 -0.555664 9.82126 -0.555664 9.82635C-0.555664 9.83143 -0.555664 9.83651 -0.555664 9.8416C-0.555664 9.84668 -0.555664 9.85176 -0.555664 9.85684C-0.555664 9.86193 -0.555664 9.86701 -0.555664 9.87209C-0.555664 9.87717 -0.555664 9.88226 -0.555664 9.88734C-0.555664 9.89242 -0.555664 9.89751 -0.555664 9.90259C-0.555664 9.90767 -0.555664 9.91275 -0.555664 9.91784C-0.555664 9.92292 -0.555664 9.928 -0.555664 9.93308C-0.555664 9.93817 -0.555664 9.94325 -0.555664 9.94833C-0.555664 9.95342 -0.555664 9.9585 -0.555664 9.96358C-0.555664 9.96866 -0.555664 9.97375 -0.555664 9.97883C-0.555664 9.98391 -0.555664 9.98899 -0.555664 9.99408C-0.555664 9.99916 -0.555664 10.0042 -0.555664 10.0093C-0.555664 10.0144 -0.555664 10.0195 -0.555664 10.0246C-0.555664 10.0297 -0.555664 10.0347 -0.555664 10.0398C-0.555664 10.0449 -0.555664 10.05 -0.555664 10.0551C-0.555664 10.0602 -0.555664 10.0652 -0.555664 10.0703C-0.555664 10.0754 -0.555664 10.0805 -0.555664 10.0856C-0.555664 10.0906 -0.555664 10.0957 -0.555664 10.1008C-0.555664 10.1059 -0.555664 10.111 -0.555664 10.1161C-0.555664 10.1211 -0.555664 10.1262 -0.555664 10.1313C-0.555664 10.1364 -0.555664 10.1415 -0.555664 10.1466C-0.555664 10.1516 -0.555664 10.1567 -0.555664 10.1618C-0.555664 10.1669 -0.555664 10.172 -0.555664 10.1771C-0.555664 10.1821 -0.555664 10.1872 -0.555664 10.1923C-0.555664 10.1974 -0.555664 10.2025 -0.555664 10.2076C-0.555664 10.2126 -0.555664 10.2177 -0.555664 10.2228C-0.555664 10.2279 -0.555664 10.233 -0.555664 10.238C-0.555664 10.2431 -0.555664 10.2482 -0.555664 10.2533C-0.555664 10.2584 -0.555664 10.2635 -0.555664 10.2685C-0.555664 10.2736 -0.555664 10.2787 -0.555664 10.2838C-0.555664 10.2889 -0.555664 10.294 -0.555664 10.299C-0.555664 10.3041 -0.555664 10.3092 -0.555664 10.3143C-0.555664 10.3194 -0.555664 10.3245 -0.555664 10.3295C-0.555664 10.3346 -0.555664 10.3397 -0.555664 10.3448C-0.555664 10.3499 -0.555664 10.355 -0.555664 10.36C-0.555664 10.3651 -0.555664 10.3702 -0.555664 10.3753C-0.555664 10.3804 -0.555664 10.3854 -0.555664 10.3905C-0.555664 10.3956 -0.555664 10.4007 -0.555664 10.4058C-0.555664 10.4109 -0.555664 10.4159 -0.555664 10.421C-0.555664 10.4261 -0.555664 10.4312 -0.555664 10.4363C-0.555664 10.4414 -0.555664 10.4464 -0.555664 10.4515C-0.555664 10.4566 -0.555664 10.4617 -0.555664 10.4668C-0.555664 10.4719 -0.555664 10.4769 -0.555664 10.482C-0.555664 10.4871 -0.555664 10.4922 -0.555664 10.4973C-0.555664 10.5024 -0.555664 10.5074 -0.555664 10.5125C-0.555664 10.5176 -0.555664 10.5227 -0.555664 10.5278C-0.555664 10.5328 -0.555664 10.5379 -0.555664 10.543C-0.555664 10.5481 -0.555664 10.5532 -0.555664 10.5583C-0.555664 10.5633 -0.555664 10.5684 -0.555664 10.5735C-0.555664 10.5786 -0.555664 10.5837 -0.555664 10.5888C-0.555664 10.5938 -0.555664 10.5989 -0.555664 10.604C-0.555664 10.6091 -0.555664 10.6142 -0.555664 10.6193C-0.555664 10.6243 -0.555664 10.6294 -0.555664 10.6345C-0.555664 10.6396 -0.555664 10.6447 -0.555664 10.6498C-0.555664 10.6548 -0.555664 10.6599 -0.555664 10.665C-0.555664 10.6701 -0.555664 10.6752 -0.555664 10.6802C-0.555664 10.6853 -0.555664 10.6904 -0.555664 10.6955C-0.555664 10.7006 -0.555664 10.7057 -0.555664 10.7107C-0.555664 10.7158 -0.555664 10.7209 -0.555664 10.726C-0.555664 10.7311 -0.555664 10.7362 -0.555664 10.7412C-0.555664 10.7463 -0.555664 10.7514 -0.555664 10.7565C-0.555664 10.7616 -0.555664 10.7667 -0.555664 10.7717C-0.555664 10.7768 -0.555664 10.7819 -0.555664 10.787C-0.555664 10.7921 -0.555664 10.7972 -0.555664 10.8022C-0.555664 10.8073 -0.555664 10.8124 -0.555664 10.8175C-0.555664 10.8226 -0.555664 10.8276 -0.555664 10.8327C-0.555664 10.8378 -0.555664 10.8429 -0.555664 10.848C-0.555664 10.8531 -0.555664 10.8581 -0.555664 10.8632C-0.555664 10.8683 -0.555664 10.8734 -0.555664 10.8785C-0.555664 10.8836 -0.555664 10.8886 -0.555664 10.8937C-0.555664 10.8988 -0.555664 10.9039 -0.555664 10.909C-0.555664 10.9141 -0.555664 10.9191 -0.555664 10.9242C-0.555664 10.9293 -0.555664 10.9344 -0.555664 10.9395C-0.555664 10.9446 -0.555664 10.9496 -0.555664 10.9547C-0.555664 10.9598 -0.555664 10.9649 -0.555664 10.97C-0.555664 10.975 -0.555664 10.9801 -0.555664 10.9852C-0.555664 10.9903 -0.555664 10.9954 -0.555664 11.0005C-0.555664 11.0055 -0.555664 11.0106 -0.555664 11.0157C-0.555664 11.0208 -0.555664 11.0259 -0.555664 11.031C-0.555664 11.036 -0.555664 11.0411 -0.555664 11.0462C-0.555664 11.0513 -0.555664 11.0564 -0.555664 11.0615C-0.555664 11.0665 -0.555664 11.0716 -0.555664 11.0767C-0.555664 11.0818 -0.555664 11.0869 -0.555664 11.0919C-0.555664 11.097 -0.555664 11.1021 -0.555664 11.1072C-0.555664 11.1123 -0.555664 11.1174 -0.555664 11.1224C-0.555664 11.1275 -0.555664 11.1326 -0.555664 11.1377C-0.555664 11.1428 -0.555664 11.1479 -0.555664 11.1529C-0.555664 11.158 -0.555664 11.1631 -0.555664 11.1682C-0.555664 11.1733 -0.555664 11.1784 -0.555664 11.1834C-0.555664 11.1885 -0.555664 11.1936 -0.555664 11.1987C-0.555664 11.2038 -0.555664 11.2089 -0.555664 11.2139C-0.555664 11.219 -0.555664 11.2241 -0.555664 11.2292C-0.555664 11.2343 -0.555664 11.2393 -0.555664 11.2444C-0.555664 11.2495 -0.555664 11.2546 -0.555664 11.2597C-0.555664 11.2648 -0.555664 11.2698 -0.555664 11.2749C-0.555664 11.28 -0.555664 11.2851 -0.555664 11.2902C-0.555664 11.2953 -0.555664 11.3003 -0.555664 11.3054C-0.555664 11.3105 -0.555664 11.3156 -0.555664 11.3207C-0.555664 11.3258 -0.555664 11.3308 -0.555664 11.3359C-0.555664 11.341 -0.555664 11.3461 -0.555664 11.3512C-0.555664 11.3563 -0.555664 11.3613 -0.555664 11.3664C-0.555664 11.3715 -0.555664 11.3766 -0.555664 11.3817C-0.555664 11.3867 -0.555664 11.3918 -0.555664 11.3969C-0.555664 11.402 -0.555664 11.4071 -0.555664 11.4122C-0.555664 11.4172 -0.555664 11.4223 -0.555664 11.4274C-0.555664 11.4325 -0.555664 11.4376 -0.555664 11.4427C-0.555664 11.4477 -0.555664 11.4528 -0.555664 11.4579C-0.555664 11.463 -0.555664 11.4681 -0.555664 11.4732C-0.555664 11.4782 -0.555664 11.4833 -0.555664 11.4884C-0.555664 11.4935 -0.555664 11.4986 -0.555664 11.5037C-0.555664 11.5087 -0.555664 11.5138 -0.555664 11.5189C-0.555664 11.524 -0.555664 11.5291 -0.555664 11.5341C-0.555664 11.5392 -0.555664 11.5443 -0.555664 11.5494C-0.555664 11.5545 -0.555664 11.5596 -0.555664 11.5646C-0.555664 11.5697 -0.555664 11.5748 -0.555664 11.5799C-0.555664 11.585 -0.555664 11.5901 -0.555664 11.5951C-0.555664 11.6002 -0.555664 11.6053 -0.555664 11.6104C-0.555664 11.6155 -0.555664 11.6206 -0.555664 11.6256C-0.555664 11.6307 -0.555664 11.6358 -0.555664 11.6409C-0.555664 11.646 -0.555664 11.6511 -0.555664 11.6561C-0.555664 11.6612 -0.555664 11.6663 -0.555664 11.6714C-0.555664 11.6765 -0.555664 11.6815 -0.555664 11.6866C-0.555664 11.6917 -0.555664 11.6968 -0.555664 11.7019C-0.555664 11.707 -0.555664 11.712 -0.555664 11.7171C-0.555664 11.7222 -0.555664 11.7273 -0.555664 11.7324C-0.555664 11.7375 -0.555664 11.7425 -0.555664 11.7476C-0.555664 11.7527 -0.555664 11.7578 -0.555664 11.7629C-0.555664 11.768 -0.555664 11.773 -0.555664 11.7781C-0.555664 11.7832 -0.555664 11.7883 -0.555664 11.7934C-0.555664 11.7985 -0.555664 11.8035 -0.555664 11.8086C-0.555664 11.8137 -0.555664 11.8188 -0.555664 11.8239C-0.555664 11.8289 -0.555664 11.834 -0.555664 11.8391C-0.555664 11.8442 -0.555664 11.8493 -0.555664 11.8544C-0.555664 11.8594 -0.555664 11.8645 -0.555664 11.8696C-0.555664 11.8747 -0.555664 11.8798 -0.555664 11.8849C-0.555664 11.8899 -0.555664 11.895 -0.555664 11.9001C-0.555664 11.9052 -0.555664 11.9103 -0.555664 11.9154C-0.555664 11.9204 -0.555664 11.9255 -0.555664 11.9306C-0.555664 11.9357 -0.555664 11.9408 -0.555664 11.9458C-0.555664 11.9509 -0.555664 11.956 -0.555664 11.9611C-0.555664 11.9662 -0.555664 11.9713 -0.555664 11.9763C-0.555664 11.9814 -0.555664 11.9865 -0.555664 11.9916C-0.555664 11.9967 -0.555664 12.0018 -0.555664 12.0068C-0.555664 12.0119 -0.555664 12.017 -0.555664 12.0221C-0.555664 12.0272 -0.555664 12.0323 -0.555664 12.0373C-0.555664 12.0424 -0.555664 12.0475 -0.555664 12.0526C-0.555664 12.0577 -0.555664 12.0628 -0.555664 12.0678C-0.555664 12.0729 -0.555664 12.078 -0.555664 12.0831C-0.555664 12.0882 -0.555664 12.0932 -0.555664 12.0983C-0.555664 12.1034 -0.555664 12.1085 -0.555664 12.1136C-0.555664 12.1187 -0.555664 12.1237 -0.555664 12.1288C-0.555664 12.1339 -0.555664 12.139 -0.555664 12.1441C-0.555664 12.1492 -0.555664 12.1542 -0.555664 12.1593C-0.555664 12.1644 -0.555664 12.1695 -0.555664 12.1746C-0.555664 12.1797 -0.555664 12.1847 -0.555664 12.1898C-0.555664 12.1949 -0.555664 12.2 -0.555664 12.2051C-0.555664 12.2102 -0.555664 12.2152 -0.555664 12.2203H1.44434ZM1.4314 4.57358C1.43499 4.55145 1.43574 4.54933 1.44385 4.50256C1.44978 4.46838 1.45845 4.41628 1.46485 4.35679L-0.523648 4.14264C-0.523144 4.13796 -0.523186 4.14037 -0.5267 4.16062C-0.528611 4.17163 -0.530187 4.18031 -0.533238 4.19748C-0.535881 4.21235 -0.539299 4.23179 -0.542725 4.25288L1.4314 4.57358ZM1.46499 4.3555C1.51415 3.89343 1.63419 3.48683 1.83509 3.13359L0.0965984 2.14484C-0.265033 2.78068 -0.451343 3.46294 -0.523786 4.14393L1.46499 4.3555ZM1.83504 3.13368C2.48649 1.98854 3.38756 1.45816 4.61903 1.45132L4.60791 -0.548654C2.6259 -0.537638 1.08382 0.409456 0.0966497 2.14475L1.83504 3.13368ZM4.61892 1.45132C6.87162 1.43902 9.12496 1.44547 11.3833 1.45163L11.3887 -0.548358C9.13205 -0.554514 6.87035 -0.560998 4.60801 -0.548655L4.61892 1.45132ZM11.3828 1.45163C11.6396 1.45247 11.8421 1.46758 12.0081 1.50638L12.4633 -0.441132C12.0786 -0.531041 11.6997 -0.547345 11.3893 -0.548356L11.3828 1.45163ZM12.0089 1.50657C12.6873 1.66453 13.1978 1.94638 13.5818 2.32634C13.9675 2.708 14.272 3.23478 14.465 3.95169L16.3962 3.43178C16.1282 2.43626 15.6684 1.57749 14.9885 0.904703C14.3069 0.23021 13.4505 -0.21128 12.4625 -0.441321L12.0089 1.50657ZM14.4651 3.95229C14.5125 4.1276 14.5095 4.22486 14.569 4.57882L16.5413 4.24764C16.5199 4.11999 16.4751 3.72393 16.3961 3.43118L14.4651 3.95229ZM14.5552 4.41323V12.2203H16.5552V4.41323H14.5552ZM14.5659 12.074C14.5293 12.3219 14.5299 12.3823 14.5032 12.5053L16.4577 12.9294C16.5019 12.726 16.5321 12.45 16.5444 12.3666L14.5659 12.074ZM14.5034 12.5046C14.3446 13.2342 14.0656 13.7799 13.6975 14.1848C13.3311 14.5878 12.8333 14.899 12.1609 15.0955L12.722 17.0152C13.6985 16.7298 14.531 16.2411 15.1774 15.5302C15.822 14.8211 16.238 13.9387 16.4576 12.93L14.5034 12.5046ZM12.1606 15.0956C11.998 15.1432 11.9216 15.1371 11.5685 15.2015L11.9272 17.1691C12.0369 17.1491 12.4345 17.0993 12.7223 17.0151L12.1606 15.0956ZM11.7479 17.1853H11.7482V15.1853H11.7479V17.1853ZM8.0055 0.371134C6.88042 0.371134 5.74052 0.365888 4.60412 0.37517L4.62046 2.3751C5.74599 2.36591 6.86805 2.37113 8.0055 2.37113V0.371134ZM4.60411 0.37517C4.29613 0.377689 3.93938 0.402955 3.57896 0.493919L4.06839 2.43311C4.21797 2.39536 4.40133 2.3769 4.62047 2.3751L4.60411 0.37517ZM3.57861 0.494007C1.58968 0.996747 0.332424 2.7203 0.330933 4.77648L2.33093 4.77793C2.3318 3.57678 3.02423 2.69704 4.06874 2.43302L3.57861 0.494007ZM0.330934 4.77633C0.328867 7.1376 0.328276 9.50008 0.333592 11.8626L2.33359 11.8581C2.32828 9.49872 2.32887 7.1387 2.33093 4.77808L0.330934 4.77633ZM0.333592 11.8627C0.334273 12.1562 0.353931 12.4945 0.429232 12.8369L2.38257 12.4074C2.34925 12.2559 2.33409 12.0732 2.33359 11.858L0.333592 11.8627ZM0.429162 12.8366C0.873288 14.8595 2.52621 16.2592 4.58504 16.2624L4.58818 14.2624C3.51618 14.2607 2.63622 13.5627 2.38264 12.4077L0.429162 12.8366ZM4.58512 16.2624C6.86319 16.2658 9.14151 16.2655 11.42 16.2599L11.4152 14.26C9.13969 14.2655 6.86402 14.2658 4.5881 14.2624L4.58512 16.2624ZM11.4202 16.2599C11.7076 16.2592 12.0348 16.2363 12.3663 16.1573L11.9027 14.2118C11.769 14.2436 11.6063 14.2595 11.415 14.26L11.4202 16.2599ZM12.3665 16.1572C14.3585 15.6821 15.665 13.9466 15.6691 11.8894L13.6691 11.8854C13.6668 13.0659 12.9498 13.962 11.9025 14.2118L12.3665 16.1572ZM15.6691 11.8894C15.6739 9.50636 15.6706 7.12256 15.67 4.74247L13.67 4.74297C13.6706 7.12603 13.6739 9.50537 13.6691 11.8855L15.6691 11.8894ZM15.67 4.74272C15.67 4.14602 15.5712 3.52038 15.2887 2.91849L13.4782 3.76843C13.6077 4.04415 13.67 4.36511 13.67 4.74272H15.67ZM15.2889 2.91892C14.9248 2.14254 14.4153 1.4999 13.7398 1.05155C13.062 0.601708 12.2772 0.387399 11.4288 0.374634L11.3987 2.37441C11.9216 2.38228 12.3202 2.50977 12.6338 2.71792C12.9497 2.92754 13.2394 3.25906 13.478 3.768L15.2889 2.91892ZM11.4287 0.374632C10.2835 0.357554 9.12543 0.371134 8.00579 0.371134V2.37113C9.15814 2.37113 10.2727 2.35762 11.3989 2.37441L11.4287 0.374632ZM8.00579 0.371134H8.0055V2.37113H8.00579V0.371134Z" fill="#383838" mask="url(#path-1-inside-1_1_339)"/>
<mask id="path-3-inside-2_1_339" fill="white">
<path d="M7.99687 4.01416C10.2653 4.01078 12.1279 5.94738 12.1312 8.31387C12.1344 10.6763 10.2747 12.6157 8.00247 12.6194C5.73404 12.6228 3.87171 10.6862 3.86817 8.31972C3.86463 5.95724 5.72459 4.01786 7.99687 4.01416ZM11.2452 8.32311C11.2511 6.46687 9.78806 4.93951 8.00218 4.93705C6.22367 4.93458 4.76716 6.44408 4.75418 8.30309C4.74149 10.1566 6.20095 11.6873 7.99008 11.6968C9.77124 11.7064 11.2396 10.1849 11.2452 8.32341V8.32311Z"/>
</mask>
<path d="M7.99687 4.01416L7.99537 3.01417L7.99524 3.01417L7.99687 4.01416ZM12.1312 8.31387L11.1312 8.31524L11.1312 8.31524L12.1312 8.31387ZM8.00247 12.6194L8.00397 13.6194L8.0041 13.6194L8.00247 12.6194ZM3.86817 8.31972L4.86817 8.31822L4.86817 8.31822L3.86817 8.31972ZM11.2452 8.32311L10.2452 8.31993V8.32311H11.2452ZM8.00218 4.93705L8.00079 5.93705L8.0008 5.93705L8.00218 4.93705ZM4.75418 8.30309L3.7542 8.2961L3.7542 8.29624L4.75418 8.30309ZM7.99008 11.6968L7.99544 10.6969L7.99541 10.6969L7.99008 11.6968ZM11.2452 8.32341L12.2452 8.32643V8.32341H11.2452ZM7.99836 5.01416C9.67529 5.01166 11.1286 6.46108 11.1312 8.31524L13.1312 8.3125C13.1272 5.43369 10.8553 3.0099 7.99537 3.01417L7.99836 5.01416ZM11.1312 8.31524C11.1337 10.1626 9.68459 11.6167 8.00085 11.6194L8.0041 13.6194C10.8649 13.6148 13.1351 11.1901 13.1312 8.31249L11.1312 8.31524ZM8.00098 11.6194C6.32416 11.6219 4.87094 10.1726 4.86817 8.31822L2.86817 8.32122C2.87248 11.1998 5.14391 13.6237 8.00397 13.6194L8.00098 11.6194ZM4.86817 8.31822C4.8654 6.47108 6.31464 5.0169 7.99849 5.01416L7.99524 3.01417C5.13454 3.01882 2.86386 5.4434 2.86817 8.32122L4.86817 8.31822ZM12.2452 8.32629C12.2527 5.9538 10.3785 3.94032 8.00356 3.93705L8.0008 5.93705C9.19766 5.9387 10.2494 6.97994 10.2452 8.31993L12.2452 8.32629ZM8.00356 3.93705C5.63399 3.93377 3.77074 5.9289 3.7542 8.2961L5.75415 8.31008C5.76359 6.95926 6.81336 5.9354 8.00079 5.93705L8.00356 3.93705ZM3.7542 8.29624C3.73795 10.6688 5.6096 12.6842 7.98474 12.6968L7.99541 10.6969C6.7923 10.6904 5.74502 9.64428 5.75415 8.30994L3.7542 8.29624ZM7.98472 12.6968C10.3602 12.7096 12.238 10.6991 12.2452 8.32643L10.2452 8.3204C10.2411 9.67069 9.1823 10.7032 7.99544 10.6969L7.98472 12.6968ZM12.2452 8.32341V8.32311H10.2452V8.32341H12.2452Z" fill="#383838" mask="url(#path-3-inside-2_1_339)"/>
<mask id="path-5-inside-3_1_339" fill="white">
<path d="M12.2337 5.02768C11.5693 5.03045 11.013 4.45369 11.0112 3.7596C11.0092 3.0689 11.5637 2.48844 12.2287 2.48536C12.8895 2.48228 13.4485 3.06182 13.4523 3.75437C13.4565 4.44168 12.8984 5.0246 12.2337 5.02768ZM12.5628 3.7633C12.5666 3.58038 12.4179 3.41872 12.2405 3.41225C12.0658 3.40578 11.9079 3.55913 11.899 3.7439C11.8902 3.93051 12.0475 4.10233 12.2293 4.10387C12.4046 4.10541 12.5592 3.94744 12.5631 3.7633H12.5628Z"/>
</mask>
<path d="M12.2337 5.02768L12.2379 6.02767L12.2383 6.02767L12.2337 5.02768ZM11.0112 3.7596L12.0112 3.75705L12.0112 3.75661L11.0112 3.7596ZM12.2287 2.48536L12.2333 3.48535L12.2333 3.48535L12.2287 2.48536ZM13.4523 3.75437L12.4523 3.75991L12.4523 3.76038L13.4523 3.75437ZM12.5628 3.7633L11.563 3.74232L11.5416 4.7633H12.5628V3.7633ZM12.2405 3.41225L12.2035 4.41157L12.2041 4.41159L12.2405 3.41225ZM11.899 3.7439L10.9002 3.69603L10.9001 3.6965L11.899 3.7439ZM12.2293 4.10387L12.2381 3.10391L12.2377 3.10391L12.2293 4.10387ZM12.5631 3.7633L13.5629 3.78413L13.5841 2.7633H12.5631V3.7633ZM12.2295 4.02769C12.1951 4.02783 12.1446 4.0135 12.0939 3.96086C12.0429 3.90795 12.0114 3.8351 12.0112 3.75705L10.0112 3.76215C10.0143 4.96799 10.9803 6.03292 12.2379 6.02767L12.2295 4.02769ZM12.0112 3.75661C12.011 3.68231 12.0409 3.60984 12.0929 3.55543C12.1447 3.50122 12.1972 3.48552 12.2333 3.48535L12.2241 1.48537C10.972 1.49117 10.0076 2.55635 10.0112 3.76259L12.0112 3.75661ZM12.2333 3.48535C12.2632 3.48521 12.3139 3.49804 12.3671 3.55317C12.4203 3.60843 12.4519 3.68316 12.4523 3.75991L14.4523 3.74883C14.4457 2.54866 13.4801 1.47952 12.224 1.48537L12.2333 3.48535ZM12.4523 3.76038C12.4528 3.82905 12.4247 3.90041 12.3714 3.95614C12.3181 4.01181 12.2643 4.02753 12.2291 4.02769L12.2383 6.02767C13.4868 6.02188 14.4596 4.95698 14.4523 3.74835L12.4523 3.76038ZM13.5626 3.78427C13.5773 3.08089 13.0255 2.4402 12.2769 2.41291L12.2041 4.41159C11.9956 4.40399 11.8337 4.30753 11.7332 4.19815C11.6324 4.08848 11.5591 3.9297 11.563 3.74232L13.5626 3.78427ZM12.2775 2.41293C11.5037 2.38429 10.9327 3.01673 10.9002 3.69603L12.8979 3.79176C12.8893 3.97042 12.8108 4.12028 12.7043 4.22372C12.5982 4.32672 12.4248 4.41976 12.2035 4.41157L12.2775 2.41293ZM10.9001 3.6965C10.8658 4.42017 11.442 5.09724 12.2208 5.10384L12.2377 3.10391C12.4636 3.10582 12.6317 3.21056 12.7297 3.3175C12.8282 3.42486 12.9075 3.58902 12.8979 3.79129L10.9001 3.6965ZM12.2205 5.10383C12.9897 5.11059 13.5486 4.46824 13.5629 3.78413L11.5633 3.74246C11.5671 3.56043 11.6434 3.40825 11.7462 3.30338C11.8485 3.19896 12.0178 3.10198 12.2381 3.10391L12.2205 5.10383ZM12.5631 2.7633H12.5628V4.7633H12.5631V2.7633Z" fill="#383838" mask="url(#path-5-inside-3_1_339)"/>
</svg>
